<?xml version="1.0" encoding="UTF-8" standalone="no"?>
<svg width="288px" height="52px" viewBox="0 0 288 52" version="1.1" xmlns="http://www.w3.org/2000/svg" xmlns:xlink="http://www.w3.org/1999/xlink" xmlns:sketch="http://www.bohemiancoding.com/sketch/ns">
    <!-- Generator: Sketch 3.3.3 (12072) - http://www.bohemiancoding.com/sketch -->
    <title>JomLaunch</title>
    <desc>Created with Sketch.</desc>
    <defs></defs>
    <g id="Page-1" stroke="none" stroke-width="1" fill="none" fill-rule="evenodd" sketch:type="MSPage">
        <g id="Event/JomLaunch-Copy" sketch:type="MSArtboardGroup" transform="translate(-465.000000, -99.000000)" fill="#FFFFFF">
            <g id="logo" sketch:type="MSLayerGroup" transform="translate(465.000000, 85.000000)">
                <path d="M22.6791633,14.9839773 L19.4336647,14.9839773 C18.62229,14.9839773 17.8109154,15.6933636 17.8109154,16.6054318 L17.8109154,53.4935227 C17.8109154,56.3310682 15.5796351,58.6619091 12.638402,58.6619091 C9.79859075,58.6619091 7.46588864,56.3310682 7.46588864,53.4935227 L7.46588864,49.7439091 C7.46588864,48.8318409 6.75593583,48.1224545 5.84313935,48.1224545 L2.59764077,48.1224545 C1.78626612,48.1224545 0.974891475,48.8318409 0.974891475,49.7439091 L0.974891475,53.4935227 C0.974891475,59.878 6.24882668,65.1477273 12.638402,65.1477273 C19.1293992,65.1477273 24.3019126,59.878 24.3019126,53.4935227 L24.3019126,16.6054318 C24.3019126,15.6933636 23.5919597,14.9839773 22.6791633,14.9839773 L22.6791633,14.9839773 Z M21.664945,53.4935227 C21.664945,58.4592273 17.6080717,62.4115227 12.638402,62.4115227 C7.77015414,62.4115227 3.71328091,58.4592273 3.71328091,53.4935227 L3.71328091,51.2640227 C3.71328091,50.96 3.91612457,50.7573182 4.11896823,50.7573182 L4.32181189,50.7573182 C4.62607738,50.7573182 4.82892104,50.96 4.82892104,51.2640227 L4.82892104,53.4935227 C4.82892104,57.8511818 8.37868512,61.3981136 12.638402,61.3981136 C16.9995407,61.3981136 20.5493048,57.8511818 20.5493048,53.4935227 L20.5493048,18.1255455 C20.5493048,17.9228636 20.7521485,17.7201818 20.9549921,17.7201818 L21.1578358,17.7201818 C21.4621013,17.7201818 21.664945,17.9228636 21.664945,18.1255455 L21.664945,53.4935227 Z M44.4848569,18.7335909 C40.1237182,18.7335909 36.5739541,22.2805227 36.5739541,26.6381818 L36.5739541,53.3921818 C36.5739541,57.7498409 40.1237182,61.2967727 44.4848569,61.2967727 C48.8459956,61.2967727 52.3957597,57.7498409 52.3957597,53.3921818 L52.3957597,26.6381818 C52.3957597,22.2805227 48.8459956,18.7335909 44.4848569,18.7335909 L44.4848569,18.7335909 Z M49.6573702,53.3921818 C49.6573702,56.3310682 47.3246681,58.6619091 44.4848569,58.6619091 C41.5436238,58.6619091 39.2109217,56.3310682 39.2109217,53.3921818 L39.2109217,26.6381818 C39.2109217,23.8006364 41.5436238,21.4697955 44.4848569,21.4697955 C47.3246681,21.4697955 49.6573702,23.8006364 49.6573702,26.6381818 L49.6573702,53.3921818 Z M44.4848569,14.9839773 C37.9938597,14.9839773 32.7199245,20.2537045 32.7199245,26.6381818 L32.7199245,53.3921818 C32.7199245,59.878 37.9938597,65.1477273 44.4848569,65.1477273 C50.8744322,65.1477273 56.1483674,59.878 56.1483674,53.3921818 L56.1483674,26.6381818 C56.1483674,20.2537045 50.8744322,14.9839773 44.4848569,14.9839773 L44.4848569,14.9839773 Z M53.409978,53.3921818 C53.409978,58.3578864 49.4545266,62.4115227 44.4848569,62.4115227 C39.5151872,62.4115227 35.4583139,58.3578864 35.4583139,53.3921818 L35.4583139,26.6381818 C35.4583139,21.6724773 39.5151872,17.7201818 44.4848569,17.7201818 C49.4545266,17.7201818 53.409978,21.6724773 53.409978,26.6381818 L53.409978,53.3921818 Z M93.1673356,14.9839773 C89.9218371,14.9839773 86.8791821,16.40275 84.7493237,18.63225 C82.6194652,16.40275 79.5768103,14.9839773 76.3313117,14.9839773 C69.8403146,14.9839773 64.5663794,20.2537045 64.5663794,26.6381818 L64.5663794,63.5262727 C64.5663794,64.337 65.377754,65.1477273 66.1891287,65.1477273 L69.4346272,65.1477273 C70.3474237,65.1477273 71.0573765,64.337 71.0573765,63.5262727 L71.0573765,26.6381818 C71.0573765,23.8006364 73.3900786,21.4697955 76.3313117,21.4697955 C79.171123,21.4697955 81.5038251,23.8006364 81.5038251,26.6381818 L81.5038251,63.5262727 C81.5038251,64.337 82.2137779,65.1477273 83.1265744,65.1477273 L86.372073,65.1477273 C87.2848695,65.1477273 87.9948223,64.337 87.9948223,63.5262727 L87.9948223,26.6381818 C87.9948223,23.8006364 90.3275244,21.4697955 93.1673356,21.4697955 C96.1085687,21.4697955 98.4412708,23.8006364 98.4412708,26.6381818 L98.4412708,63.5262727 C98.4412708,64.337 99.1512237,65.1477273 100.06402,65.1477273 L103.309519,65.1477273 C104.222315,65.1477273 104.932268,64.337 104.932268,63.5262727 L104.932268,26.6381818 C104.932268,20.2537045 99.6583328,14.9839773 93.1673356,14.9839773 L93.1673356,14.9839773 Z M102.193879,62.0061591 C102.193879,62.2088409 101.991035,62.4115227 101.788191,62.4115227 L101.585348,62.4115227 C101.281082,62.4115227 101.078238,62.2088409 101.078238,62.0061591 L101.078238,26.6381818 C101.078238,22.2805227 97.5284744,18.7335909 93.1673356,18.7335909 C88.8061969,18.7335909 85.2564328,22.2805227 85.2564328,26.6381818 L85.2564328,62.0061591 C85.2564328,62.2088409 85.155011,62.4115227 84.8507455,62.4115227 L84.6479019,62.4115227 C84.4450582,62.4115227 84.2422145,62.2088409 84.2422145,62.0061591 L84.2422145,26.6381818 C84.2422145,22.2805227 80.6924505,18.7335909 76.3313117,18.7335909 C71.970173,18.7335909 68.4204089,22.2805227 68.4204089,26.6381818 L68.4204089,62.0061591 C68.4204089,62.2088409 68.2175653,62.4115227 67.9132998,62.4115227 L67.7104561,62.4115227 C67.5076125,62.4115227 67.3047688,62.2088409 67.3047688,62.0061591 L67.3047688,26.6381818 C67.3047688,21.6724773 71.361642,17.7201818 76.3313117,17.7201818 C80.1853413,17.7201818 83.5322617,20.1523636 84.7493237,23.5979545 C85.9663857,20.1523636 89.3133061,17.7201818 93.1673356,17.7201818 C98.1370053,17.7201818 102.193879,21.6724773 102.193879,26.6381818 L102.193879,62.0061591 Z M128.563555,58.6619091 L119.841277,58.6619091 L119.841277,16.6054318 C119.841277,15.6933636 119.029902,14.9839773 118.218528,14.9839773 L114.973029,14.9839773 C114.060233,14.9839773 113.35028,15.6933636 113.35028,16.6054318 L113.35028,61.9048182 C113.35028,63.6276136 114.770186,65.1477273 116.595779,65.1477273 L128.563555,65.1477273 C129.476351,65.1477273 130.186304,64.337 130.186304,63.5262727 L130.186304,60.2833636 C130.186304,59.3712955 129.476351,58.6619091 128.563555,58.6619091 L128.563555,58.6619091 Z M127.549336,62.0061591 C127.549336,62.2088409 127.346493,62.4115227 127.042227,62.4115227 L116.595779,62.4115227 C116.291513,62.4115227 115.987248,62.2088409 115.987248,61.9048182 L115.987248,18.1255455 C115.987248,17.8215227 116.190091,17.7201818 116.392935,17.7201818 L116.6972,17.7201818 C116.900044,17.7201818 117.102888,17.8215227 117.102888,18.1255455 L117.102888,61.2967727 L127.042227,61.2967727 C127.346493,61.2967727 127.549336,61.4994545 127.549336,61.7021364 L127.549336,62.0061591 Z M149.35503,15.0853182 C142.864033,15.0853182 137.590098,20.3550455 137.590098,26.7395227 L137.590098,63.5262727 C137.590098,64.4383409 138.30005,65.1477273 139.212847,65.1477273 L142.458345,65.1477273 C143.371142,65.1477273 144.081095,64.4383409 144.081095,63.5262727 L144.081095,43.3594318 L154.527543,43.3594318 L154.527543,63.5262727 C154.527543,64.4383409 155.237496,65.1477273 156.150293,65.1477273 L159.395791,65.1477273 C160.308588,65.1477273 161.01854,64.4383409 161.01854,63.5262727 L161.01854,26.7395227 C161.01854,20.3550455 155.744605,15.0853182 149.35503,15.0853182 L149.35503,15.0853182 Z M158.280151,62.1075 C158.280151,62.3101818 158.077307,62.5128636 157.874464,62.5128636 L157.67162,62.5128636 C157.367355,62.5128636 157.265933,62.3101818 157.265933,62.1075 L157.265933,40.6232273 L141.444127,40.6232273 L141.444127,62.1075 C141.444127,62.3101818 141.241283,62.5128636 140.937018,62.5128636 L140.734174,62.5128636 C140.531331,62.5128636 140.328487,62.3101818 140.328487,62.1075 L140.328487,26.7395227 C140.328487,21.7738182 144.38536,17.7201818 149.35503,17.7201818 C154.3247,17.7201818 158.280151,21.7738182 158.280151,26.7395227 L158.280151,62.1075 Z M149.35503,18.8349318 C144.993891,18.8349318 141.444127,22.3818636 141.444127,26.7395227 L141.444127,39.5084773 L157.265933,39.5084773 L157.265933,26.7395227 C157.265933,22.3818636 153.716169,18.8349318 149.35503,18.8349318 L149.35503,18.8349318 Z M154.527543,36.8736136 L144.081095,36.8736136 L144.081095,26.7395227 C144.081095,23.9019773 146.413797,21.5711364 149.35503,21.5711364 C152.194841,21.5711364 154.527543,23.9019773 154.527543,26.7395227 L154.527543,36.8736136 Z M191.242246,14.9839773 L187.996747,14.9839773 C187.083951,14.9839773 186.373998,15.6933636 186.373998,16.6054318 L186.373998,53.3921818 C186.373998,56.3310682 184.041296,58.6619091 181.201485,58.6619091 C178.260252,58.6619091 175.92755,56.3310682 175.92755,53.3921818 L175.92755,16.6054318 C175.92755,15.6933636 175.217597,14.9839773 174.3048,14.9839773 L171.059302,14.9839773 C170.247927,14.9839773 169.436552,15.6933636 169.436552,16.6054318 L169.436552,53.3921818 C169.436552,59.878 174.710488,65.1477273 181.201485,65.1477273 C187.59106,65.1477273 192.864995,59.878 192.864995,53.3921818 L192.864995,16.6054318 C192.864995,15.6933636 192.155042,14.9839773 191.242246,14.9839773 L191.242246,14.9839773 Z M190.228028,53.3921818 C190.228028,58.3578864 186.171154,62.4115227 181.201485,62.4115227 C176.231815,62.4115227 172.174942,58.3578864 172.174942,53.3921818 L172.174942,18.1255455 C172.174942,17.8215227 172.377785,17.7201818 172.580629,17.7201818 L172.884895,17.7201818 C173.087738,17.7201818 173.290582,17.8215227 173.290582,18.1255455 L173.290582,53.3921818 C173.290582,57.7498409 176.840346,61.2967727 181.201485,61.2967727 C185.562623,61.2967727 189.112388,57.7498409 189.112388,53.3921818 L189.112388,18.1255455 C189.112388,17.8215227 189.315231,17.7201818 189.518075,17.7201818 L189.720919,17.7201818 C190.025184,17.7201818 190.228028,17.8215227 190.228028,18.1255455 L190.228028,53.3921818 Z M213.04794,14.9839773 C206.556942,14.9839773 201.283007,20.2537045 201.283007,26.6381818 L201.283007,63.5262727 C201.283007,64.337 201.99296,65.1477273 202.905757,65.1477273 L206.151255,65.1477273 C207.064052,65.1477273 207.774004,64.337 207.774004,63.5262727 L207.774004,26.6381818 C207.774004,23.8006364 210.106707,21.4697955 213.04794,21.4697955 C215.887751,21.4697955 218.220453,23.8006364 218.220453,26.6381818 L218.220453,63.5262727 C218.220453,64.337 218.930406,65.1477273 219.843202,65.1477273 L223.088701,65.1477273 C224.001497,65.1477273 224.71145,64.337 224.71145,63.5262727 L224.71145,26.6381818 C224.71145,20.2537045 219.437515,14.9839773 213.04794,14.9839773 L213.04794,14.9839773 Z M221.973061,62.0061591 C221.973061,62.2088409 221.871639,62.4115227 221.567373,62.4115227 L221.36453,62.4115227 C221.161686,62.4115227 220.958842,62.2088409 220.958842,62.0061591 L220.958842,26.6381818 C220.958842,22.2805227 217.409078,18.7335909 213.04794,18.7335909 C208.686801,18.7335909 205.137037,22.2805227 205.137037,26.6381818 L205.137037,62.0061591 C205.137037,62.2088409 204.934193,62.4115227 204.629928,62.4115227 L204.427084,62.4115227 C204.22424,62.4115227 204.021397,62.2088409 204.021397,62.0061591 L204.021397,26.6381818 C204.021397,21.6724773 208.07827,17.7201818 213.04794,17.7201818 C218.017609,17.7201818 221.973061,21.6724773 221.973061,26.6381818 L221.973061,62.0061591 Z M251.588235,31.7052273 L254.833734,31.7052273 C255.74653,31.7052273 256.456483,30.9958409 256.456483,30.0837727 L256.456483,26.6381818 C256.456483,20.2537045 251.182548,14.9839773 244.792973,14.9839773 C238.301975,14.9839773 233.129462,20.2537045 233.129462,26.6381818 L233.129462,53.4935227 C233.129462,59.878 238.301975,65.1477273 244.792973,65.1477273 C251.182548,65.1477273 256.456483,59.878 256.456483,53.4935227 L256.456483,49.7439091 C256.456483,48.8318409 255.74653,48.1224545 254.833734,48.1224545 L251.588235,48.1224545 C250.675439,48.1224545 249.965486,48.8318409 249.965486,49.7439091 L249.965486,53.4935227 C249.965486,56.3310682 247.632784,58.6619091 244.792973,58.6619091 C241.953161,58.6619091 239.620459,56.3310682 239.620459,53.4935227 L239.620459,26.6381818 C239.620459,23.8006364 241.953161,21.4697955 244.792973,21.4697955 C247.632784,21.4697955 249.965486,23.8006364 249.965486,26.6381818 L249.965486,30.0837727 C249.965486,30.9958409 250.675439,31.7052273 251.588235,31.7052273 L251.588235,31.7052273 Z M244.792973,18.8349318 C240.431834,18.8349318 236.88207,22.2805227 236.88207,26.6381818 L236.88207,53.4935227 C236.88207,57.8511818 240.431834,61.3981136 244.792973,61.3981136 C249.154111,61.3981136 252.602454,57.8511818 252.602454,53.4935227 L252.602454,51.2640227 C252.602454,50.96 252.805297,50.7573182 253.109563,50.7573182 L253.312406,50.7573182 C253.51525,50.7573182 253.718094,50.96 253.718094,51.2640227 L253.718094,53.4935227 C253.718094,58.4592273 249.762642,62.4115227 244.792973,62.4115227 C239.823303,62.4115227 235.76643,58.4592273 235.76643,53.4935227 L235.76643,26.6381818 C235.76643,21.6724773 239.823303,17.7201818 244.792973,17.7201818 C249.762642,17.7201818 253.718094,21.6724773 253.718094,26.6381818 L253.718094,27.4489091 L253.718094,28.5636591 C253.718094,28.8676818 253.51525,29.0703636 253.312406,29.0703636 L253.109563,29.0703636 C252.805297,29.0703636 252.602454,28.8676818 252.602454,28.5636591 L252.602454,27.4489091 L252.602454,26.6381818 C252.602454,22.2805227 249.154111,18.8349318 244.792973,18.8349318 L244.792973,18.8349318 Z M285.564549,14.9839773 L282.31905,14.9839773 C281.507675,14.9839773 280.696301,15.6933636 280.696301,16.6054318 L280.696301,36.7722727 L270.351274,36.7722727 L270.351274,16.6054318 C270.351274,15.6933636 269.641321,14.9839773 268.728525,14.9839773 L265.483026,14.9839773 C264.57023,14.9839773 263.860277,15.6933636 263.860277,16.6054318 L263.860277,63.5262727 C263.860277,64.4383409 264.57023,65.1477273 265.483026,65.1477273 L268.728525,65.1477273 C269.641321,65.1477273 270.351274,64.4383409 270.351274,63.5262727 L270.351274,43.2580909 L280.696301,43.2580909 L280.696301,63.5262727 C280.696301,64.4383409 281.507675,65.1477273 282.31905,65.1477273 L285.564549,65.1477273 C286.477345,65.1477273 287.187298,64.4383409 287.187298,63.5262727 L287.187298,16.6054318 C287.187298,15.6933636 286.477345,14.9839773 285.564549,14.9839773 L285.564549,14.9839773 Z M284.55033,62.0061591 C284.55033,62.2088409 284.347487,62.4115227 284.144643,62.4115227 L283.840377,62.4115227 C283.637534,62.4115227 283.43469,62.2088409 283.43469,62.0061591 L283.43469,40.6232273 L267.612885,40.6232273 L267.612885,62.0061591 C267.612885,62.2088409 267.410041,62.4115227 267.207197,62.4115227 L267.004354,62.4115227 C266.700088,62.4115227 266.497244,62.2088409 266.497244,62.0061591 L266.497244,18.1255455 C266.497244,17.9228636 266.700088,17.7201818 267.004354,17.7201818 L267.207197,17.7201818 C267.410041,17.7201818 267.612885,17.9228636 267.612885,18.1255455 L267.612885,39.5084773 L283.43469,39.5084773 L283.43469,18.1255455 C283.43469,17.9228636 283.637534,17.7201818 283.840377,17.7201818 L284.144643,17.7201818 C284.347487,17.7201818 284.55033,17.9228636 284.55033,18.1255455 L284.55033,62.0061591 Z" id="JomLaunch" sketch:type="MSShapeGroup"></path>
            </g>
        </g>
    </g>
</svg>